<?xml version="1.0" encoding="utf-8"?>
<!-- Generator: Adobe Illustrator 24.3.0, SVG Export Plug-In . SVG Version: 6.00 Build 0)  -->
<svg version="1.1" id="Vrstva_1" xmlns="http://www.w3.org/2000/svg" xmlns:xlink="http://www.w3.org/1999/xlink" x="0px" y="0px"
	 viewBox="0 0 180 180" style="enable-background:new 0 0 180 180;" xml:space="preserve">
<style type="text/css">
	.st0{fill:#1B3169;}
	.st1{fill:#FFFFFF;}
</style>
<rect class="st0" width="180" height="180"/>
<g>
	<g>
		<g>
			<path class="st1" d="M74.09,20.2l-7.64,3.11c-1.37,0.56-2.03,2.12-1.47,3.49c0.42,1.04,1.43,1.67,2.48,1.67
				c0.34,0,0.68-0.06,1.01-0.2l7.64-3.11c1.37-0.56,2.03-2.12,1.47-3.49C77.02,20.3,75.46,19.64,74.09,20.2z M139.88,105.21
				l-1.38,0.46c-1.74,0.58-5.04,1.39-9.68,2.39c18.01-11.98,21.54-30.03,20.17-40.78c-0.23-1.79-0.7-5.5-3.49-5.54
				c-0.39,0.01-2.4,0.1-2.81,2.78c-1.16,7.52-6.58,13.09-12.96,17.1c9.16-10.64,8.5-23.99,6.58-32.82
				c-2.58-11.85-10.56-27-15.21-26.23c-1.02,0.17-2.67,1.14-2.38,3.74c3.39,30.54-22.22,46.46-23.31,47.13l-0.16,0.11
				c-8.16,5.83-22.95,10.73-28.42,11.24c2.47-2.87,5.25-4.2,8.68-5.84c5.06-2.42,11.36-5.43,18.36-14.66
				c11.24-14.82,9.51-26.63,8.67-32.31c-0.08-0.53-0.15-1.01-0.2-1.43c-0.47-4.07-3.74-11.89-10.86-16.74
				c-6.5-4.43-14.87-5.45-24.2-2.96c-11.14,2.98-18.4,10.56-20.98,21.92c-1.9,8.35-0.58,15.76-0.52,16.07l0.91,4.96l3.38-3.75
				c3.92-4.35,9.35-9.13,11.18-9.31c0.98-0.1,2.11,0.5,3.31,1.13c1.48,0.78,3.16,1.65,5.13,1.54c2.11-0.14,3.98-1.53,5.79-2.88
				c1.12-0.84,2.97-2.22,3.73-2.1c0.73,0.79,1.19,4.26,0.31,5.54c-1.92,2.8-4.39,4.87-7.36,6.15c-6.71,2.89-29.18,13.57-36.57,29.84
				c-6.28,13.83-6.68,26.46-1.19,37.55c10.54,21.3,39.25,29.84,45.62,31.5l9.64,21.4h2.73l2.67-0.03c2.99,0.19,7.66,0.16,15.08-0.24
				c2.1-0.11,3.03-1.34,3.4-2.06c1.69-3.28-1.49-8.56-7.24-17.59c-1.73-2.72-4.17-6.56-5.12-8.63c26.19-8.16,39.56-28.34,40.63-32.9
				c0.35-1.49-0.32-2.37-0.75-2.76L139.88,105.21z M98.12,137.59c-0.97,0.28-1.73,0.97-2.08,1.9c-0.91,2.4,0.84,5.48,6.05,13.67
				c2.33,3.66,6.04,9.48,6.79,12.08c-11.09,0.57-14.68,0.15-15.72-0.07c-0.11-0.11-0.24-0.21-0.37-0.29
				c-0.09-0.06-0.19-0.11-0.29-0.16l-8.98-19.96l-1.2-0.28c-0.33-0.08-32.92-7.79-43.5-29.18c-4.79-9.68-4.36-20.88,1.27-33.28
				c5.29-11.64,21.04-21.75,34.01-27.34c3.79-1.63,7.08-4.37,9.5-7.91c1.68-2.46,1.59-6.31,0.79-8.85
				c-0.66-2.11-1.82-3.54-3.34-4.12c-3.23-1.23-6.18,0.97-8.55,2.73c-1.05,0.79-2.5,1.86-3.15,1.9c-0.54,0.05-1.54-0.48-2.49-0.97
				c-1.63-0.86-3.66-1.93-6.12-1.68c-3.03,0.3-7.32,3.85-10.54,6.95c-0.14-7.98,1.93-22.72,18.35-27.11
				c8-2.14,14.78-1.38,20.12,2.26c5.7,3.88,8.37,10.15,8.72,13.2c0.05,0.46,0.13,0.99,0.22,1.59c0.79,5.39,2.26,15.43-7.72,28.58
				c-6.28,8.28-11.73,10.88-16.55,13.18c-4,1.91-7.78,3.72-11.14,8.11c-2.41,3.15-1.09,5.13-0.41,5.83
				c4.71,4.86,28.6-5.36,36.25-10.78c1.77-1.12,26.03-17.02,25.91-46.18c4.13,6.68,10.11,20.24,8.19,33.06
				c-1.9,12.67-11.01,21.32-27.08,25.7c-2.4,0.65-2.46,2.27-2.37,2.93c0.13,1.05,1,2.18,2.6,2.21h0.03
				c2.87,0,28.92-5.01,38.79-20.82c-0.33,3.62-1.26,8.01-3.33,12.55c-5.46,11.99-16.43,20.31-32.59,24.7l-0.25,0.07
				c-1.06,0.29-2.13,0.58-3.22,0.85c-0.99,0.17-1.93,0.32-2.77,0.46c-4.61,0.76-6,0.99-5.67,3.43c0.22,1.61,1.43,2.29,3.59,2.06
				c2.05-0.23,4-0.63,5.84-1.08c1.83-0.31,3.82-0.65,5.64-0.99c7.73-1.43,17.11-3.25,23.41-4.74
				C130.21,118.6,118.53,131.76,98.12,137.59z"/>
		</g>
	</g>
</g>
</svg>
